<svg width="13" height="13" viewBox="0 0 13 13" fill="none" xmlns="http://www.w3.org/2000/svg">
<rect x="0" y="0" width="13" height="13" rx="2" fill="#C73E59" fill-opacity="0.9"/>
<path d="M7.1938 3L7.0719 7.4811H5.92816L5.80317 3H7.1938ZM6.5 10.4811C6.29378 10.4811 6.1167 10.4081 5.96879 10.2623C5.82087 10.1144 5.74796 9.9373 5.75004 9.7311C5.74796 9.5269 5.82087 9.3519 5.96879 9.2061C6.1167 9.0603 6.29378 8.9874 6.5 8.9874C6.6979 8.9874 6.8719 9.0603 7.0219 9.2061C7.1719 9.3519 7.2479 9.5269 7.25 9.7311C7.2479 9.8686 7.2115 9.9946 7.1406 10.1092C7.0719 10.2217 6.9813 10.3123 6.8688 10.3811C6.7563 10.4477 6.6334 10.4811 6.5 10.4811Z" fill="white"/>
</svg>
