<svg width="24" height="24" viewBox="0 0 24 24" fill="none" xmlns="http://www.w3.org/2000/svg">
<path d="M5.88892 14.6783V19.021C5.88892 19.2884 6.11517 19.3993 6.18555 19.4246C6.25594 19.4548 6.49224 19.5204 6.7034 19.3237L9.98866 16.1666C10.2684 15.8977 10.5384 15.6151 10.7413 15.2845C10.8369 15.1291 10.8764 15.0415 10.8764 15.0415C11.0776 14.633 11.0776 14.2395 10.8814 13.8461C10.5899 13.261 9.84575 12.6659 8.72452 12.101L6.80899 13.1703C6.24087 13.4931 5.88892 14.063 5.88892 14.6783Z" fill="#00378A"/>
<path d="M4 5.01945V9.574C4 10.144 4.38211 10.6483 4.92512 10.8097C6.77532 11.3444 9.99809 12.4943 10.7774 14.184C10.8779 14.406 10.9382 14.6228 10.9585 14.8498C11.4763 13.9066 11.7126 12.8222 11.602 11.7226C11.4511 10.1641 10.6265 8.74681 9.33948 7.84397L4.74914 4.63107C4.66869 4.57055 4.57316 4.54028 4.47764 4.54028C4.39719 4.54028 4.3268 4.55542 4.25139 4.59577C4.10055 4.68151 4 4.83787 4 5.01945Z" fill="#0059FF"/>
<path d="M18.108 14.6783V19.021C18.108 19.2884 17.8818 19.3993 17.8113 19.4246C17.741 19.4548 17.5046 19.5204 17.2935 19.3237L13.9318 16.0931C13.7029 15.8732 13.4844 15.6406 13.312 15.374C13.1755 15.1631 13.1205 15.0415 13.1205 15.0415C12.9194 14.633 12.9194 14.2395 13.1153 13.8461C13.407 13.261 14.1512 12.6659 15.2722 12.101L17.1879 13.1703C17.7611 13.4931 18.108 14.063 18.108 14.6783Z" fill="#00378A"/>
<path d="M20 5.01914V9.57369C20 10.1436 19.6178 10.648 19.0748 10.8094C17.2246 11.3441 14.0019 12.4941 13.2226 14.1837C13.1219 14.4057 13.0616 14.6225 13.0415 14.8495C12.5237 13.9063 12.2874 12.8219 12.398 11.7224C12.5487 10.1638 13.3733 8.74651 14.6605 7.84367L19.2509 4.63077C19.3313 4.57024 19.4268 4.53998 19.5223 4.53998C19.6027 4.53998 19.6732 4.55511 19.7485 4.59546C19.8994 4.6812 20 4.83756 20 5.01914Z" fill="#0059FF"/>
</svg>
 